<svg width="96" height="20" viewBox="0 0 96 20" fill="none" xmlns="http://www.w3.org/2000/svg">
<g id="Base-long-Logo" clip-path="url(#clip0_9758_2623)">
<g id="Vector">
<path fill-rule="evenodd" clip-rule="evenodd" d="M0.395111 1.3852C0.395111 0.786293 0.881198 0.300781 1.48082 0.300781H7.68624C13.3316 0.300781 18.0732 4.51052 18.0732 9.89831C18.0732 15.1779 14.1311 19.4959 8.37386 19.4959H6.27041C5.67079 19.4959 5.1847 19.0104 5.1847 18.4115C5.1847 17.8125 5.67079 17.327 6.27041 17.327H8.37386C12.8904 17.327 15.9017 14.022 15.9017 9.89831C15.9017 5.88279 12.3148 2.46962 7.68624 2.46962H2.56652V12.8809C2.56652 13.4798 2.08044 13.9653 1.48082 13.9653C0.881198 13.9653 0.395111 13.4798 0.395111 12.8809V1.3852Z" fill="#E54666"/>
<path fill-rule="evenodd" clip-rule="evenodd" d="M8.9554 8.5978C8.79173 8.5978 8.62967 8.63 8.47847 8.69256C8.32726 8.75512 8.18987 8.84681 8.07414 8.9624C7.95842 9.07799 7.86661 9.21521 7.80398 9.36624C7.74135 9.51727 7.70912 9.67914 7.70912 9.84261C7.70912 10.0468 7.54336 10.2124 7.33889 10.2124C7.13442 10.2124 6.96866 10.0468 6.96866 9.84261C6.96866 9.58202 7.02005 9.32398 7.11989 9.08322C7.21974 8.84246 7.36608 8.6237 7.55056 8.43944C7.73505 8.25517 7.95407 8.109 8.19511 8.00928C8.43615 7.90955 8.6945 7.85823 8.9554 7.85823C9.15987 7.85823 9.32562 8.02379 9.32562 8.22801C9.32562 8.43224 9.15987 8.5978 8.9554 8.5978Z" fill="#E54666"/>
<path fill-rule="evenodd" clip-rule="evenodd" d="M25.2441 7.33362C22.4665 7.33362 18.9337 9.34775 18.9337 13.5148C18.9337 17.7051 22.3204 19.6267 25.4877 19.6267C27.0227 19.6267 28.3627 19.21 29.2886 18.4923C29.8246 18.0756 29.9464 17.7513 29.9464 17.4505C29.9464 16.9412 29.6053 16.5708 29.0449 16.5708C28.7039 16.5708 28.4358 16.7328 28.0216 16.9412C27.2663 17.381 26.5841 17.6126 25.5852 17.6126C23.636 17.6126 21.8574 16.5476 21.5893 14.3945L29.7515 14.4177C30.7992 14.4177 31.3596 14.0473 31.3596 13.0981C31.3597 9.41722 28.0217 7.33362 25.2441 7.33362ZM25.2441 9.46353C26.8766 9.46353 28.6308 10.4359 28.8501 12.6352H21.5894C21.8087 10.4359 23.6361 9.46353 25.2441 9.46353ZM38.0371 7.33362C35.3569 7.33362 32.0922 9.37092 32.0922 13.4918C32.0922 17.6821 35.3326 19.673 38.0371 19.673C40.3518 19.673 41.8624 18.2145 42.0329 17.1727V18.4228C42.0329 19.0942 42.6177 19.6498 43.3242 19.6498C44.0306 19.6498 44.64 19.0942 44.64 18.4228V8.63008C44.64 7.95868 44.0309 7.40306 43.3242 7.40306C42.6174 7.40306 42.0329 7.95868 42.0329 8.63008V9.5561C41.3996 8.21337 39.8401 7.33362 38.0371 7.33362ZM38.4515 17.5664C36.6728 17.5664 34.6747 16.2468 34.6747 13.4918C34.6747 10.76 36.6728 9.44036 38.4515 9.44036C40.1083 9.44036 42.1548 10.5979 42.1548 13.4918C42.1548 16.3626 40.1083 17.5664 38.4515 17.5664ZM49.0516 18.3998V4.20835C49.0516 3.53699 48.4668 2.98136 47.7603 2.98136C47.0539 2.98136 46.4691 3.53699 46.4691 4.20835V18.3998C46.4691 19.0712 47.0539 19.6268 47.7603 19.6268C48.4668 19.6268 49.0516 19.0712 49.0516 18.3998Z" fill="#E54666"/>
<path fill-rule="evenodd" clip-rule="evenodd" d="M66.8225 19.6731C69.6001 19.6731 71.0621 17.659 71.1837 16.8487V18.3767C71.1837 19.0712 71.7686 19.6268 72.4754 19.6268C73.1822 19.6268 73.7666 19.0712 73.7666 18.3767V8.63008C73.7666 7.95868 73.1818 7.40306 72.4754 7.40306C71.7689 7.40306 71.1837 7.95868 71.1837 8.63008V14.5799C71.0375 15.5754 70.0144 17.5664 67.6755 17.5664C66.0918 17.5664 64.7028 16.6404 64.7028 14.3253V8.63008C64.7028 7.95868 64.118 7.40306 63.4115 7.40306C62.7051 7.40306 62.1445 7.95868 62.1445 8.63008V14.3252C62.1445 18.2609 64.4592 19.6731 66.8225 19.6731ZM82.6611 7.35675C79.8835 7.35675 78.4218 9.37092 78.2998 10.1812V8.65336C78.2998 7.95882 77.7153 7.4032 77.0086 7.4032C76.3018 7.4032 75.7173 7.95882 75.7173 8.65336V18.3998C75.7173 19.0712 76.3021 19.6268 77.0086 19.6268C77.715 19.6268 78.2998 19.0712 78.2998 18.3998V12.45C78.446 11.4545 79.4695 9.4635 81.8085 9.4635C83.3921 9.4635 84.7811 10.3895 84.7811 12.7046V18.3998C84.7811 19.0712 85.3656 19.6268 86.0724 19.6268C86.7792 19.6268 87.3394 19.0712 87.3394 18.3998V12.7047C87.3394 8.76903 85.0247 7.35675 82.6611 7.35675ZM94.4066 17.4043C94.1385 17.4275 93.7733 17.52 93.4563 17.52C92.896 17.52 92.6036 17.1959 92.6036 16.5013V9.44036H94.3824C95.0157 9.44036 95.4543 9.04679 95.4543 8.44486C95.4543 7.8661 95.0157 7.4725 94.3824 7.4725H92.6036V5.66675C92.6036 5.01852 92.0188 4.46305 91.3124 4.46305C90.6302 4.46305 90.0453 5.01867 90.0453 5.66675V7.47253H89.1196C88.4859 7.47253 88.0719 7.86611 88.0719 8.4449C88.0719 9.04682 88.4859 9.4404 89.1196 9.4404H90.0453V16.4783C90.0453 19.1407 91.4828 19.6267 92.9449 19.6267C94.3093 19.6267 95.4543 19.21 95.4543 18.2608C95.4543 17.6821 95.0157 17.3117 94.4066 17.4043ZM57.5621 12.6352V18.3072C57.5621 19.0017 58.1469 19.5805 58.9022 19.5805C59.0709 19.5824 59.2383 19.5508 59.3947 19.4877C59.5512 19.4246 59.6935 19.3311 59.8136 19.2127C59.9336 19.0943 60.029 18.9533 60.0942 18.7979C60.1594 18.6425 60.1932 18.4757 60.1935 18.3072V4.50917C60.1932 4.34066 60.1594 4.17388 60.0942 4.01847C60.029 3.86306 59.9336 3.72209 59.8136 3.6037C59.6935 3.48531 59.5512 3.39185 59.3947 3.32872C59.2383 3.26559 59.0709 3.23403 58.9022 3.23588C58.1469 3.23588 57.5621 3.81467 57.5621 4.50917V10.4822C57.5621 10.4822 51.8777 10.4933 51.2979 10.4933C51.0196 10.4933 50.7526 10.6037 50.5558 10.8003C50.359 10.9969 50.2484 11.2635 50.2484 11.5415C50.2484 12.1205 50.7182 12.626 51.2979 12.626C51.8777 12.626 57.5621 12.6352 57.5621 12.6352Z" fill="#E54666"/>
<path fill-rule="evenodd" clip-rule="evenodd" d="M8.47847 8.69256C8.62967 8.63 8.79173 8.5978 8.9554 8.5978C9.15987 8.5978 9.32562 8.43224 9.32562 8.22801C9.32562 8.02379 9.15987 7.85823 8.9554 7.85823C8.6945 7.85823 8.43615 7.90955 8.19511 8.00928C7.95407 8.109 7.73505 8.25517 7.55056 8.43944C7.36608 8.6237 7.21974 8.84246 7.11989 9.08322C7.02005 9.32398 6.96866 9.58202 6.96866 9.84261C6.96866 10.0468 7.13442 10.2124 7.33889 10.2124C7.54336 10.2124 7.70912 10.0468 7.70912 9.84261C7.70912 9.67914 7.74135 9.51727 7.80398 9.36624C7.86661 9.21521 7.95842 9.07799 8.07414 8.9624C8.18987 8.84681 8.32726 8.75512 8.47847 8.69256Z" fill="#E54666"/>
</g>
<path id="Vector_2" fill-rule="evenodd" clip-rule="evenodd" d="M8.95541 4.76392C6.1472 4.76392 3.87069 7.03773 3.87069 9.84263C3.87069 10.932 4.2141 11.9413 4.7987 12.7684L0.454453 16.9808C0.0242243 17.398 0.0140413 18.0845 0.431709 18.5143C0.849376 18.944 1.53673 18.9542 1.96696 18.537L6.40267 14.2359C7.1529 14.6717 8.02497 14.9213 8.95541 14.9213C11.7636 14.9213 14.0401 12.6475 14.0401 9.84263C14.0401 7.03773 11.7636 4.76392 8.95541 4.76392ZM8.95541 6.93276C7.34643 6.93276 6.0421 8.23555 6.0421 9.84263C6.0421 11.4497 7.34643 12.7525 8.95541 12.7525C10.5644 12.7525 11.8687 11.4497 11.8687 9.84263C11.8687 8.23555 10.5644 6.93276 8.95541 6.93276Z" fill="#1C2024"/>
</g>
<defs>
<clipPath id="clip0_9758_2623">
<rect width="95.325" height="19.375" fill="white" transform="translate(0.125 0.299683)"/>
</clipPath>
</defs>
</svg>
