<svg width="64" height="64" viewBox="0 0 64 64" fill="none" xmlns="http://www.w3.org/2000/svg">
<g clip-path="url(#clip0_9428_19262)">
<g clip-path="url(#clip1_9428_19262)">
<path d="M-0.415588 20.3636C-0.415588 9.11711 8.70152 0 19.948 0H43.6364C54.8829 0 64 9.11711 64 20.3636V44.052C64 55.2985 54.8829 64.4156 43.6364 64.4156H19.948C8.70152 64.4156 -0.415588 55.2985 -0.415588 44.052V20.3636Z" fill="#E54666"/>
<g clip-path="url(#clip2_9428_19262)">
<path fill-rule="evenodd" clip-rule="evenodd" d="M14.6674 13.6942C14.6674 12.4096 15.709 11.3682 16.9938 11.3682H30.2903C42.3867 11.3682 52.5466 20.3979 52.5466 31.9544C52.5466 43.2789 44.1 52.5407 31.7637 52.5407H27.2566C25.9718 52.5407 24.9302 51.4993 24.9302 50.2147C24.9302 48.9301 25.9718 47.8887 27.2566 47.8887H31.7637C41.4414 47.8887 47.8939 40.7995 47.8939 31.9544C47.8939 23.3413 40.208 16.0202 30.2903 16.0202H19.3202V38.3518C19.3202 39.6365 18.2786 40.6779 16.9938 40.6779C15.709 40.6779 14.6674 39.6365 14.6674 38.3518V13.6942Z" fill="white"/>
<path fill-rule="evenodd" clip-rule="evenodd" d="M33.0098 29.1649C32.6591 29.1649 32.3118 29.2339 31.9878 29.3681C31.6638 29.5023 31.3695 29.699 31.1215 29.9469C30.8735 30.1948 30.6768 30.4892 30.5426 30.8131C30.4084 31.1371 30.3393 31.4843 30.3393 31.8349C30.3393 32.273 29.9842 32.6281 29.546 32.6281C29.1079 32.6281 28.7527 32.273 28.7527 31.8349C28.7527 31.276 28.8629 30.7225 29.0768 30.2061C29.2907 29.6897 29.6043 29.2204 29.9996 28.8252C30.3949 28.4299 30.8642 28.1164 31.3807 27.9025C31.8972 27.6886 32.4507 27.5785 33.0098 27.5785C33.4479 27.5785 33.8031 27.9336 33.8031 28.3717C33.8031 28.8098 33.4479 29.1649 33.0098 29.1649Z" fill="white"/>
<path fill-rule="evenodd" clip-rule="evenodd" d="M33.0098 20.9413C26.9925 20.9413 22.1146 25.8186 22.1146 31.8349C22.1146 34.1717 22.8504 36.3365 24.1031 38.1106L14.7946 47.146C13.8727 48.0408 13.8509 49.5134 14.7458 50.4352C15.6408 51.3569 17.1136 51.3787 18.0354 50.4839L27.5399 41.2582C29.1475 42.1931 31.0161 42.7285 33.0098 42.7285C39.027 42.7285 43.9049 37.8513 43.9049 31.8349C43.9049 25.8186 39.027 20.9413 33.0098 20.9413ZM33.0098 25.5934C29.5622 25.5934 26.7673 28.3878 26.7673 31.8349C26.7673 35.282 29.5622 38.0764 33.0098 38.0764C36.4574 38.0764 39.2522 35.282 39.2522 31.8349C39.2522 28.3878 36.4574 25.5934 33.0098 25.5934Z" fill="white"/>
<path fill-rule="evenodd" clip-rule="evenodd" d="M31.9878 29.3681C32.3118 29.2339 32.6591 29.1649 33.0098 29.1649C33.4479 29.1649 33.8031 28.8098 33.8031 28.3717C33.8031 27.9336 33.4479 27.5785 33.0098 27.5785C32.4507 27.5785 31.8972 27.6886 31.3807 27.9025C30.8642 28.1164 30.3949 28.4299 29.9996 28.8252C29.6043 29.2204 29.2907 29.6897 29.0768 30.2061C28.8629 30.7225 28.7527 31.276 28.7527 31.8349C28.7527 32.273 29.1079 32.6281 29.546 32.6281C29.9842 32.6281 30.3393 32.273 30.3393 31.8349C30.3393 31.4843 30.4084 31.1371 30.5426 30.8131C30.6768 30.4892 30.8735 30.1948 31.1215 29.9469C31.3695 29.699 31.6638 29.5023 31.9878 29.3681Z" fill="white"/>
</g>
</g>
</g>
<defs>
<clipPath id="clip0_9428_19262">
<rect width="64" height="64" fill="white"/>
</clipPath>
<clipPath id="clip1_9428_19262">
<rect width="64" height="64" fill="white"/>
</clipPath>
<clipPath id="clip2_9428_19262">
<rect width="41.5584" height="41.5584" fill="white" transform="translate(11.2208 11.2208)"/>
</clipPath>
</defs>
</svg>
