<svg xmlns="http://www.w3.org/2000/svg" width="100" height="50" viewBox="0 0 96 20" fill="none">
<g clip-path="url(#clip0_10352_17164)">
<path fill-rule="evenodd" clip-rule="evenodd" d="M0.89502 1.3852C0.89502 0.786293 1.38111 0.300781 1.98073 0.300781H8.18615C13.8315 0.300781 18.5731 4.51052 18.5731 9.89831C18.5731 15.1779 14.6311 19.4959 8.87377 19.4959H6.77032C6.1707 19.4959 5.68461 19.0104 5.68461 18.4115C5.68461 17.8125 6.1707 17.327 6.77032 17.327H8.87377C13.3903 17.327 16.4017 14.022 16.4017 9.89831C16.4017 5.88279 12.8147 2.46962 8.18615 2.46962H3.06643V12.8809C3.06643 13.4798 2.58034 13.9653 1.98073 13.9653C1.38111 13.9653 0.89502 13.4798 0.89502 12.8809V1.3852Z" fill="#E54666"/>
<path fill-rule="evenodd" clip-rule="evenodd" d="M9.45531 8.5978C9.29164 8.5978 9.12958 8.63 8.97838 8.69256C8.82717 8.75512 8.68978 8.84681 8.57405 8.9624C8.45832 9.07799 8.36652 9.21521 8.30389 9.36624C8.24126 9.51727 8.20902 9.67914 8.20902 9.84261C8.20902 10.0468 8.04327 10.2124 7.8388 10.2124C7.63433 10.2124 7.46857 10.0468 7.46857 9.84261C7.46857 9.58202 7.51996 9.32398 7.6198 9.08322C7.71965 8.84246 7.86599 8.6237 8.05047 8.43944C8.23496 8.25517 8.45398 8.109 8.69502 8.00928C8.93606 7.90955 9.1944 7.85823 9.45531 7.85823C9.65978 7.85823 9.82553 8.02379 9.82553 8.22801C9.82553 8.43224 9.65978 8.5978 9.45531 8.5978Z" fill="#E54666"/>
<path fill-rule="evenodd" clip-rule="evenodd" d="M25.744 7.33362C22.9664 7.33362 19.4336 9.34775 19.4336 13.5148C19.4336 17.7051 22.8203 19.6267 25.9876 19.6267C27.5226 19.6267 28.8626 19.21 29.7885 18.4923C30.3245 18.0756 30.4464 17.7513 30.4464 17.4505C30.4464 16.9412 30.1053 16.5708 29.5449 16.5708C29.2038 16.5708 28.9357 16.7328 28.5215 16.9412C27.7663 17.381 27.084 17.6126 26.0851 17.6126C24.1359 17.6126 22.3573 16.5476 22.0892 14.3945L30.2514 14.4177C31.2991 14.4177 31.8595 14.0473 31.8595 13.0981C31.8596 9.41722 28.5216 7.33362 25.744 7.33362ZM25.744 9.46353C27.3765 9.46353 29.1307 10.4359 29.35 12.6352H22.0893C22.3086 10.4359 24.136 9.46353 25.744 9.46353ZM38.537 7.33362C35.8568 7.33362 32.5921 9.37092 32.5921 13.4918C32.5921 17.6821 35.8325 19.673 38.537 19.673C40.8518 19.673 42.3623 18.2145 42.5328 17.1727V18.4228C42.5328 19.0942 43.1176 19.6498 43.8241 19.6498C44.5305 19.6498 45.1399 19.0942 45.1399 18.4228V8.63008C45.1399 7.95868 44.5309 7.40306 43.8241 7.40306C43.1173 7.40306 42.5328 7.95868 42.5328 8.63008V9.5561C41.8995 8.21337 40.34 7.33362 38.537 7.33362ZM38.9514 17.5664C37.1727 17.5664 35.1746 16.2468 35.1746 13.4918C35.1746 10.76 37.1727 9.44036 38.9514 9.44036C40.6082 9.44036 42.6548 10.5979 42.6548 13.4918C42.6548 16.3626 40.6082 17.5664 38.9514 17.5664ZM49.5515 18.3998V4.20835C49.5515 3.53699 48.9667 2.98136 48.2603 2.98136C47.5538 2.98136 46.969 3.53699 46.969 4.20835V18.3998C46.969 19.0712 47.5538 19.6268 48.2603 19.6268C48.9667 19.6268 49.5515 19.0712 49.5515 18.3998Z" fill="#E54666"/>
<path fill-rule="evenodd" clip-rule="evenodd" d="M67.3224 19.6731C70.1 19.6731 71.562 17.659 71.6836 16.8487V18.3767C71.6836 19.0712 72.2685 19.6268 72.9753 19.6268C73.6821 19.6268 74.2665 19.0712 74.2665 18.3767V8.63008C74.2665 7.95868 73.6817 7.40306 72.9753 7.40306C72.2688 7.40306 71.6836 7.95868 71.6836 8.63008V14.5799C71.5374 15.5754 70.5143 17.5664 68.1754 17.5664C66.5917 17.5664 65.2027 16.6404 65.2027 14.3253V8.63008C65.2027 7.95868 64.6179 7.40306 63.9114 7.40306C63.205 7.40306 62.6444 7.95868 62.6444 8.63008V14.3252C62.6444 18.2609 64.9591 19.6731 67.3224 19.6731ZM83.161 7.35675C80.3834 7.35675 78.9217 9.37092 78.7997 10.1812V8.65336C78.7997 7.95882 78.2153 7.4032 77.5085 7.4032C76.8017 7.4032 76.2172 7.95882 76.2172 8.65336V18.3998C76.2172 19.0712 76.802 19.6268 77.5085 19.6268C78.2149 19.6268 78.7997 19.0712 78.7997 18.3998V12.45C78.9459 11.4545 79.9694 9.4635 82.3084 9.4635C83.8921 9.4635 85.281 10.3895 85.281 12.7046V18.3998C85.281 19.0712 85.8655 19.6268 86.5723 19.6268C87.2791 19.6268 87.8393 19.0712 87.8393 18.3998V12.7047C87.8393 8.76903 85.5246 7.35675 83.161 7.35675ZM94.9065 17.4043C94.6384 17.4275 94.2732 17.52 93.9562 17.52C93.396 17.52 93.1036 17.1959 93.1036 16.5013V9.44036H94.8823C95.5156 9.44036 95.9542 9.04679 95.9542 8.44486C95.9542 7.8661 95.5156 7.4725 94.8823 7.4725H93.1036V5.66675C93.1036 5.01852 92.5187 4.46305 91.8123 4.46305C91.1301 4.46305 90.5453 5.01867 90.5453 5.66675V7.47253H89.6195C88.9858 7.47253 88.5718 7.86611 88.5718 8.4449C88.5718 9.04682 88.9858 9.4404 89.6195 9.4404H90.5453V16.4783C90.5453 19.1407 91.9827 19.6267 93.4448 19.6267C94.8092 19.6267 95.9542 19.21 95.9542 18.2608C95.9542 17.6821 95.5156 17.3117 94.9065 17.4043ZM58.062 12.6352V18.3072C58.062 19.0017 58.6468 19.5805 59.4021 19.5805C59.5708 19.5824 59.7382 19.5508 59.8947 19.4877C60.0511 19.4246 60.1934 19.3311 60.3135 19.2127C60.4336 19.0943 60.5289 18.9533 60.5941 18.7979C60.6594 18.6425 60.6931 18.4757 60.6934 18.3072V4.50917C60.6931 4.34066 60.6593 4.17388 60.5941 4.01847C60.5289 3.86306 60.4335 3.72209 60.3135 3.6037C60.1934 3.48531 60.0511 3.39185 59.8946 3.32872C59.7382 3.26559 59.5708 3.23403 59.4021 3.23588C58.6468 3.23588 58.062 3.81467 58.062 4.50917V10.4822C58.062 10.4822 52.3776 10.4933 51.7979 10.4933C51.5195 10.4933 51.2525 10.6037 51.0557 10.8003C50.8589 10.9969 50.7483 11.2635 50.7483 11.5415C50.7483 12.1205 51.2181 12.626 51.7979 12.626C52.3776 12.626 58.062 12.6352 58.062 12.6352Z" fill="#E54666"/>
<path fill-rule="evenodd" clip-rule="evenodd" d="M8.97838 8.69256C9.12958 8.63 9.29164 8.5978 9.45531 8.5978C9.65978 8.5978 9.82553 8.43224 9.82553 8.22801C9.82553 8.02379 9.65978 7.85823 9.45531 7.85823C9.1944 7.85823 8.93606 7.90955 8.69502 8.00928C8.45398 8.109 8.23496 8.25517 8.05047 8.43944C7.86599 8.6237 7.71965 8.84246 7.6198 9.08322C7.51996 9.32398 7.46857 9.58202 7.46857 9.84261C7.46857 10.0468 7.63433 10.2124 7.8388 10.2124C8.04327 10.2124 8.20902 10.0468 8.20902 9.84261C8.20902 9.67914 8.24126 9.51727 8.30389 9.36624C8.36652 9.21521 8.45832 9.07799 8.57405 8.9624C8.68978 8.84681 8.82717 8.75512 8.97838 8.69256Z" fill="#E54666"/>
<path fill-rule="evenodd" clip-rule="evenodd" d="M9.45541 4.76392C6.6472 4.76392 4.37069 7.03773 4.37069 9.84263C4.37069 10.932 4.7141 11.9413 5.2987 12.7684L0.954453 16.9808C0.524224 17.398 0.514041 18.0845 0.931709 18.5143C1.34938 18.944 2.03673 18.9542 2.46696 18.537L6.90267 14.2359C7.6529 14.6717 8.52497 14.9213 9.45541 14.9213C12.2636 14.9213 14.5401 12.6475 14.5401 9.84263C14.5401 7.03773 12.2636 4.76392 9.45541 4.76392ZM9.45541 6.93276C7.84643 6.93276 6.5421 8.23555 6.5421 9.84263C6.5421 11.4497 7.84643 12.7525 9.45541 12.7525C11.0644 12.7525 12.3687 11.4497 12.3687 9.84263C12.3687 8.23555 11.0644 6.93276 9.45541 6.93276Z" fill="#EDEEF0"/>
</g>
<defs>
<clipPath id="clip0_10352_17164">
<rect width="95.325" height="19.375" fill="white" transform="translate(0.625 0.299683)"/>
</clipPath>
</defs>
</svg>